<svg width="18" height="13" viewBox="0 0 18 13" fill="none" xmlns="http://www.w3.org/2000/svg">
<path d="M8.31501 12.3075C8.39146 12.4185 8.49375 12.5093 8.61308 12.572C8.73241 12.6348 8.8652 12.6675 9.00001 12.6675C9.13482 12.6675 9.2676 12.6348 9.38693 12.572C9.50626 12.5093 9.60856 12.4185 9.68501 12.3075L17.185 1.47416C17.2718 1.34921 17.3227 1.20286 17.3322 1.051C17.3417 0.899148 17.3094 0.7476 17.2387 0.612826C17.1681 0.478051 17.0619 0.365204 16.9317 0.286546C16.8015 0.207887 16.6522 0.166426 16.5 0.166665H1.50001C1.34821 0.167292 1.19946 0.209287 1.06974 0.288134C0.940028 0.366981 0.834261 0.479697 0.763816 0.614159C0.693371 0.748622 0.660913 0.899744 0.669933 1.05127C0.678953 1.2028 0.729109 1.34901 0.815008 1.47416L8.31501 12.3075Z" fill="#DCDCDC"/>
</svg>
