<svg width="24" height="26" viewBox="0 0 24 26" fill="none" xmlns="http://www.w3.org/2000/svg">
<path d="M9.68244 2.06C9.86921 1.59839 10.1896 1.20307 10.6025 0.924713C11.0154 0.646358 11.502 0.49765 11.9999 0.49765C12.4979 0.49765 12.9845 0.646358 13.3974 0.924713C13.8103 1.20307 14.1307 1.59839 14.3174 2.06C16.1659 2.56835 17.7963 3.66944 18.9584 5.19416C20.1205 6.71889 20.7499 8.58292 20.7499 10.5V16.3712L23.0399 19.8062C23.1655 19.9945 23.2377 20.2133 23.2487 20.4393C23.2596 20.6654 23.209 20.8902 23.1023 21.0897C22.9955 21.2892 22.8366 21.456 22.6425 21.5723C22.4483 21.6886 22.2262 21.75 21.9999 21.75H16.3312C16.1807 22.7914 15.66 23.7437 14.8646 24.4324C14.0691 25.1212 13.0521 25.5003 11.9999 25.5003C10.9477 25.5003 9.93077 25.1212 9.13532 24.4324C8.33986 23.7437 7.8192 22.7914 7.66869 21.75H1.99994C1.77364 21.75 1.55157 21.6886 1.35743 21.5723C1.16329 21.456 1.00436 21.2892 0.8976 21.0897C0.790838 20.8902 0.740249 20.6654 0.751228 20.4393C0.762208 20.2133 0.834345 19.9945 0.959943 19.8062L3.24994 16.3712V10.5C3.24994 6.47 5.97494 3.075 9.68244 2.06ZM10.2324 21.75C10.3615 22.1158 10.6009 22.4326 10.9176 22.6566C11.2343 22.8807 11.6126 23.001 12.0006 23.001C12.3885 23.001 12.7669 22.8807 13.0835 22.6566C13.4002 22.4326 13.6396 22.1158 13.7687 21.75H10.2312H10.2324ZM11.9999 4.25C10.3423 4.25 8.75263 4.90848 7.58052 6.08058C6.40842 7.25268 5.74994 8.84239 5.74994 10.5V16.75C5.75 16.9969 5.67692 17.2383 5.53994 17.4437L4.33619 19.25H19.6624L18.4587 17.4437C18.3221 17.2382 18.2495 16.9968 18.2499 16.75V10.5C18.2499 8.84239 17.5915 7.25268 16.4194 6.08058C15.2473 4.90848 13.6575 4.25 11.9999 4.25Z" fill="#DCDCDC"/>
</svg>
