<svg width="21" height="21" viewBox="0 0 21 21" fill="none" xmlns="http://www.w3.org/2000/svg">
<path fill-rule="evenodd" clip-rule="evenodd" d="M15.0052 13.5198L20.6093 19.124C20.8063 19.3211 20.9169 19.5884 20.9168 19.867C20.9167 20.1457 20.8059 20.4129 20.6088 20.6099C20.4117 20.8069 20.1444 20.9175 19.8657 20.9174C19.5871 20.9173 19.3199 20.8065 19.1229 20.6094L13.5187 15.0052C11.8434 16.3028 9.73671 16.9134 7.62718 16.7129C5.51764 16.5123 3.56374 15.5157 2.16296 13.9256C0.762183 12.3356 0.0197434 10.2717 0.0866824 8.1537C0.153621 6.03571 1.02491 4.02277 2.5233 2.52438C4.02169 1.02599 6.03463 0.154705 8.15261 0.0877657C10.2706 0.0208268 12.3345 0.763266 13.9246 2.16405C15.5146 3.56483 16.5112 5.51873 16.7118 7.62826C16.9123 9.73779 16.3017 11.8445 15.0041 13.5198H15.0052ZM8.41663 14.6667C10.0742 14.6667 11.6639 14.0082 12.836 12.8361C14.0081 11.664 14.6666 10.0743 14.6666 8.41667C14.6666 6.75907 14.0081 5.16935 12.836 3.99725C11.6639 2.82515 10.0742 2.16667 8.41663 2.16667C6.75902 2.16667 5.16931 2.82515 3.99721 3.99725C2.82511 5.16935 2.16663 6.75907 2.16663 8.41667C2.16663 10.0743 2.82511 11.664 3.99721 12.8361C5.16931 14.0082 6.75902 14.6667 8.41663 14.6667Z" fill="#699BF7"/>
</svg>
