<svg id="Camada_2" data-name="Camada 2" xmlns="http://www.w3.org/2000/svg" viewBox="0 0 15.81996 4.90646"><defs><style>.cls-1{fill:#84c2d3;}.cls-2{fill:#efefef;}</style></defs><path class="cls-1" d="M2.48621,1.63042a.8666.8666,0,1,0,.86653.86666A.86771.86771,0,0,0,2.48621,1.63042Zm.25486,1.16086A.23844.23844,0,0,1,2.63931,2.87a.34073.34073,0,0,1-.09739.025v.10344a.06.06,0,0,1-.12,0V2.89431a.63416.63416,0,0,1-.18835-.04859.06365.06365,0,0,1-.02788-.02291A.06076.06076,0,0,1,2.21076,2.746a.05619.05619,0,0,1,.04274-.0183A.06525.06525,0,0,1,2.28,2.7333a.48392.48392,0,0,0,.14192.03863V2.55319c-.03126-.00919-.05849-.0183-.08107-.02712a.25843.25843,0,0,1-.09679-.06583.17154.17154,0,0,1-.04224-.12066.21417.21417,0,0,1,.03422-.118.23459.23459,0,0,1,.1001-.08393.31573.31573,0,0,1,.08576-.02548V1.99556a.06.06,0,0,1,.12,0V2.1088a.59155.59155,0,0,1,.16536.03416.05649.05649,0,0,1,.03988.057.062.062,0,0,1-.01532.04084.0541.0541,0,0,1-.0427.01937.06331.06331,0,0,1-.02275-.00535.50317.50317,0,0,0-.12446-.0259v.22361a.95744.95744,0,0,1,.10166.032.23718.23718,0,0,1,.094.06678.18485.18485,0,0,1,.0403.12444A.19393.19393,0,0,1,2.74107,2.79128Z" transform="translate(-0.03313 -0.04379)"/><path class="cls-1" d="M2.5793,2.59822l-.03736-.01188v.185c.07345-.011.10924-.04439.10924-.10182a.05222.05222,0,0,0-.01852-.04108A.15741.15741,0,0,0,2.5793,2.59822Z" transform="translate(-0.03313 -0.04379)"/><path class="cls-1" d="M2.32958,2.33224a.06616.06616,0,0,0,.02.05047.15678.15678,0,0,0,.05674.03352l.01566.0052V2.237a.185.185,0,0,0-.0476.0199A.08336.08336,0,0,0,2.32958,2.33224Z" transform="translate(-0.03313 -0.04379)"/><path class="cls-1" d="M.03313,2.49654A2.45635,2.45635,0,0,0,2.48684,4.95025a2.42821,2.42821,0,0,0,1.73468-.72.20432.20432,0,0,0-.28991-.288,2.02631,2.02631,0,0,1-1.44477.599,2.04476,2.04476,0,0,1,0-4.08952,2.02323,2.02323,0,0,1,1.44477.6.20432.20432,0,1,0,.28991-.288,2.4282,2.4282,0,0,0-1.73468-.72A2.45552,2.45552,0,0,0,.03313,2.49654Z" transform="translate(-0.03313 -0.04379)"/><path class="cls-1" d="M.851,2.49654a1.63715,1.63715,0,0,0,1.63581,1.6358,1.61585,1.61585,0,0,0,1.15582-.48095.20432.20432,0,0,0-.28992-.288,1.21,1.21,0,0,1-.8659.36,1.22686,1.22686,0,1,1,0-2.45371,1.21163,1.21163,0,0,1,.8659.36.20447.20447,0,0,0,.34943-.144.20607.20607,0,0,0-.05951-.144A1.61753,1.61753,0,0,0,2.48684.86073,1.63716,1.63716,0,0,0,.851,2.49654Z" transform="translate(-0.03313 -0.04379)"/><path class="cls-2" d="M5.35113,1.85882a.4137.4137,0,0,1-.44482.33252.46745.46745,0,0,1-.48145-.5249.48637.48637,0,0,1,.49219-.53564.39532.39532,0,0,1,.4331.33349H5.127a.20185.20185,0,0,0-.2168-.15869c-.18408,0-.25488.16553-.25488.353,0,.17432.06152.35791.26074.35791A.20539.20539,0,0,0,5.127,1.85882Z" transform="translate(-0.03313 -0.04379)"/><path class="cls-2" d="M5.49322,1.61273c0-.07715,0-.14551-.00146-.21H5.7022c.00245.01709.00538.09424.00538.13574a.24842.24842,0,0,1,.24853-.15381v.20459c-.15576-.0039-.24853.0376-.24853.25V2.1767H5.49322Z" transform="translate(-0.03313 -0.04379)"/><path class="cls-2" d="M6.26617,1.40277c.08008.26709.1499.50537.16211.57666h.00146c.0166-.07764.062-.25146.1543-.57666h.21338l-.25977.79639c-.07422.22265-.13574.28906-.32177.28906a.99744.99744,0,0,1-.10059-.00586V2.31a.48752.48752,0,0,0,.05566.00341.13556.13556,0,0,0,.14747-.11279l-.28174-.79785Z" transform="translate(-0.03313 -0.04379)"/><path class="cls-2" d="M7.12408,2.10834v.36474H6.91119V1.58929c0-.0625,0-.12451-.00147-.18652h.20752a.88917.88917,0,0,1,.00684.09619.24542.24542,0,0,1,.2251-.11426c.17383,0,.30859.14551.30859.38575,0,.27294-.15039.42431-.33789.42431A.21555.21555,0,0,1,7.12408,2.10834ZM7.44,1.77875c0-.14209-.05713-.22217-.15918-.22217-.12158,0-.165.07812-.165.23389,0,.14794.04.23388.15576.23388C7.38482,2.02435,7.44,1.936,7.44,1.77875Z" transform="translate(-0.03313 -0.04379)"/><path class="cls-2" d="M7.72711,1.40277h.11914V1.1933H8.0606v.20947h.15186V1.5639H8.0606v.38184c0,.05859.01807.08154.082.08154A.34764.34764,0,0,0,8.191,2.02484V2.1723a.47573.47573,0,0,1-.14355.01465c-.15088,0-.20117-.08057-.20117-.21582V1.5639H7.72711Z" transform="translate(-0.03313 -0.04379)"/><path class="cls-2" d="M9.05133,1.788a.3834.3834,0,1,1-.76563.0044.37423.37423,0,0,1,.39063-.40772A.36666.36666,0,0,1,9.05133,1.788Zm-.54786.00147c0,.14941.06446.2373.167.2373.10546,0,.16308-.08838.16308-.23584,0-.16211-.05957-.23828-.166-.23828C8.56793,1.55267,8.50347,1.62591,8.50347,1.78949Z" transform="translate(-0.03313 -0.04379)"/><path class="cls-2" d="M10.46343,1.85882a.41384.41384,0,0,1-.44433.33252.4672.4672,0,0,1-.48145-.5249.4861.4861,0,0,1,.49219-.53564.3948.3948,0,0,1,.43262.33349h-.22363a.2015.2015,0,0,0-.2168-.15869c-.1836,0-.25488.16553-.25488.353,0,.17432.06152.35791.26074.35791a.2054.2054,0,0,0,.21094-.15772Z" transform="translate(-0.03313 -0.04379)"/><path class="cls-2" d="M11.28375,1.9516c0,.0747,0,.15576.001.2251h-.21c-.00293-.021-.0039-.062-.00586-.08936a.22083.22083,0,0,1-.21289.10742c-.15722,0-.25879-.09619-.25879-.28808V1.40277h.21485v.46094c0,.08545.02636.15625.11914.15625.09765,0,.13769-.05225.13769-.20508V1.40277h.21485Z" transform="translate(-0.03313 -0.04379)"/><path class="cls-2" d="M11.47808,1.61273c0-.07715-.001-.14551-.002-.21h.21c.00293.01709.00586.09424.00586.13574a.24865.24865,0,0,1,.248-.15381v.20459c-.15528-.0039-.248.0376-.248.25V2.1767h-.21387Z" transform="translate(-0.03313 -0.04379)"/><path class="cls-2" d="M12.05523,1.61273c0-.07715-.001-.14551-.00195-.21h.21c.00293.01709.00586.09424.00586.13574a.24865.24865,0,0,1,.24805-.15381v.20459c-.15528-.0039-.24805.0376-.24805.25V2.1767h-.21387Z" transform="translate(-0.03313 -0.04379)"/><path class="cls-2" d="M12.8023,1.83539c0,.09716.04883.1914.15528.1914a.12254.12254,0,0,0,.13574-.08252h.21386a.33911.33911,0,0,1-.35449.25049.357.357,0,0,1-.36621-.394.36513.36513,0,0,1,.37305-.416.34193.34193,0,0,1,.35644.38575.45377.45377,0,0,1-.00293.06494Zm.29883-.13135c-.001-.09033-.03711-.166-.1416-.166-.10254,0-.14356.0708-.15235.166Z" transform="translate(-0.03313 -0.04379)"/><path class="cls-2" d="M13.46832,1.59759c0-.06591,0-.13769-.002-.19482h.208a.9834.9834,0,0,1,.00781.09863.23592.23592,0,0,1,.22461-.1167c.15625,0,.25684.105.25684.29981V2.1767h-.21387V1.708c0-.08692-.02929-.14991-.124-.14991-.09082,0-.14356.05078-.14356.1875V2.1767h-.21386Z" transform="translate(-0.03313 -0.04379)"/><path class="cls-2" d="M15.025,1.9267a.32278.32278,0,0,1-.34863.26806.35414.35414,0,0,1-.36426-.39941.37584.37584,0,0,1,.375-.41065.3068.3068,0,0,1,.33789.27491h-.209a.12177.12177,0,0,0-.13281-.10694c-.09863,0-.15332.08545-.15332.23584,0,.16455.05859.23975.15234.23975A.131.131,0,0,0,14.814,1.9267Z" transform="translate(-0.03313 -0.04379)"/><path class="cls-2" d="M15.32183,1.40277c.08008.26709.14942.50537.16211.57666h.002c.0166-.07764.06152-.25146.15429-.57666h.21289l-.25976.79639c-.07422.22265-.13574.28906-.32227.28906a.98856.98856,0,0,1-.09961-.00586V2.31a.48417.48417,0,0,0,.05469.00341.1347.1347,0,0,0,.14746-.11279l-.28125-.79785Z" transform="translate(-0.03313 -0.04379)"/><path class="cls-2" d="M4.6817,3.12543h-.313V2.94281h.84814v.18262h-.312v.84814H4.6817Z" transform="translate(-0.03313 -0.04379)"/><path class="cls-2" d="M5.24273,3.40961c0-.07715,0-.14551-.00146-.21h.21045c.00244.01709.00537.09424.00537.13575a.24842.24842,0,0,1,.24853-.15381v.20459c-.15576-.00391-.24853.0376-.24853.25v.3374H5.24273Z" transform="translate(-0.03313 -0.04379)"/><path class="cls-2" d="M6.44927,3.77338a1.77869,1.77869,0,0,0,.01026.20019H6.25494a.3284.3284,0,0,1-.01074-.07568.228.228,0,0,1-.21778.09375A.23934.23934,0,0,1,5.76129,3.749c0-.17627.1416-.25781.36816-.25781h.11084V3.44379c0-.05518-.02-.10938-.11914-.10938-.09082,0-.11035.03857-.12012.09473h-.2041c.01172-.1377.09668-.249.332-.24756.20752.00146.32031.08252.32031.2666Zm-.209-.15235h-.0874c-.12891,0-.17676.03955-.17676.11426a.099.099,0,0,0,.11133.103c.13623,0,.15283-.09473.15283-.19678Z" transform="translate(-0.03313 -0.04379)"/><path class="cls-2" d="M7.31011,3.72357a.32257.32257,0,0,1-.34814.26807.354.354,0,0,1-.36475-.39942.37556.37556,0,0,1,.375-.41064.30644.30644,0,0,1,.33789.2749H7.10064a.12086.12086,0,0,0-.13281-.10693c-.09766,0-.15332.08545-.15332.23584,0,.16455.05859.23974.15283.23974a.13144.13144,0,0,0,.13184-.10156Z" transform="translate(-0.03313 -0.04379)"/><path class="cls-2" d="M7.65679,3.5263c.05713-.07763.15967-.19775.26661-.32666H8.169l-.26953.292.29541.48193H7.95172l-.1958-.34424L7.65679,3.725v.24853H7.44244V2.88226h.21435Z" transform="translate(-0.03313 -0.04379)"/><path class="cls-2" d="M8.4273,3.63226c0,.09717.04883.19141.15528.19141a.12255.12255,0,0,0,.13574-.08252h.21386a.33911.33911,0,0,1-.35449.25049.357.357,0,0,1-.36621-.394.36513.36513,0,0,1,.37305-.416.34192.34192,0,0,1,.35644.38574.45363.45363,0,0,1-.00293.06494Zm.29883-.13135c-.001-.09033-.03711-.166-.1416-.166-.10254,0-.14356.0708-.15235.166Z" transform="translate(-0.03313 -0.04379)"/><path class="cls-2" d="M9.09332,3.40961c0-.07715-.001-.14551-.002-.21h.21c.00293.01709.00585.09424.00585.13575a.24863.24863,0,0,1,.248-.15381v.20459c-.15527-.00391-.248.0376-.248.25v.3374H9.09332Z" transform="translate(-0.03313 -0.04379)"/></svg>